<?xml version="1.0" encoding="UTF-8"?>
<!DOCTYPE svg PUBLIC "-//W3C//DTD SVG 1.1//EN" "http://www.w3.org/Graphics/SVG/1.1/DTD/svg11.dtd">
<!-- Creator: CorelDRAW 2019 (64-Bit) -->
<svg xmlns="http://www.w3.org/2000/svg" xml:space="preserve" width="61.3009mm" height="61.302mm" version="1.1" style="shape-rendering:geometricPrecision; text-rendering:geometricPrecision; image-rendering:optimizeQuality; fill-rule:evenodd; clip-rule:evenodd"
viewBox="0 0 2041.83 2041.87"
 xmlns:xlink="http://www.w3.org/1999/xlink">
 <defs>
  <style type="text/css">
   <![CDATA[
    .fil0 {fill:black;fill-rule:nonzero}
   ]]>
  </style>
 </defs>
 <g id="Слой_x0020_1">
  <metadata id="CorelCorpID_0Corel-Layer"/>
  <path class="fil0" d="M737.47 678.75c12.11,-99.08 92.18,-96.51 152.66,-94.53l15.01 0.33c20.4,-0.29 47.93,-0.62 74.46,0.55 30.75,1.43 61.8,4.92 85.91,12.48 14.17,4.7 24.41,9.1 33.8,15.23 10.94,7.12 18.97,15.05 27.52,25.91 33.5,43.19 28.52,136.26 25.06,201.29 -1.39,30.27 -2.27,59.67 -2.97,89.98l1.28 -2.02c36.74,-57.06 72.52,-132.4 89.03,-169.61 9.5,-21.72 15.52,-38.02 20.07,-50.39 10.09,-27.38 15.96,-43.41 33.87,-59.85 26.83,-24.62 49.1,-24.99 101.8,-25.36l42.82 -0.59c56.88,-0.95 151.96,-2.53 170.79,0.33 39.38,6.35 65.17,23.42 79.45,53.98 12,25.72 11.41,54.53 0.15,88.99 -5.14,15.85 -11.34,30.75 -18.06,45.07 -6.06,12.88 -12.95,25.69 -20.14,38.31 -14.42,25.32 -28.7,48.11 -42.79,69.47 -13.91,20.99 -28.37,41.61 -43.12,62.31l-12.37 17.03c-22.61,31.49 -56.84,78.79 -66.61,98.86 -3.67,8 9.36,20.77 25.43,36.41l9.03 8.81c5.87,5.8 9.03,9.91 12.07,13.91l19.64 19.53c10.94,10.46 21.69,20.8 34.86,35.67 19.45,22.42 40.29,47.45 57.65,71.82 12.73,17.5 28.04,38.71 39.23,63.27 26.5,58.16 27.6,116.11 -50.5,151.67 -38.46,17.62 -123.93,16.92 -181.91,16.4l-32.63 -0.07c-31.01,0.48 -53.21,0.29 -77.87,-6.57 -26.09,-7.26 -49.14,-20.26 -78.13,-44.48 -5.91,-5.06 -9.47,-8.88 -13.1,-12.92l-5.03 -5.25c-17.1,-17.17 -36.62,-40.55 -55.45,-63.23l-31.38 -36.99c-2.35,10.35 -3.78,21.43 -4.37,31.52 -7.93,136.88 -28.15,136.73 -158.57,135.85l-31.48 -0.11c-57.84,0.18 -119.6,-14.42 -176.22,-38.68 -58.75,-25.17 -113.47,-61.25 -153.76,-102.24l-4.92 -4.26c-7.82,-6.39 -14.64,-11.85 -24.55,-25.21 -19.27,-17.17 -31.74,-35.52 -48.33,-56.07 -37.03,-44.55 -81.43,-115.71 -123.71,-191.27 -52.36,-93.61 -102.2,-195.63 -129.83,-260.81l-11.52 -25.76c-14.31,-31.3 -27.52,-60 -28.44,-90.02 -1.87,-56.77 23.96,-93.39 104.22,-95.89 17.58,-0.55 85.98,-1.95 138.64,-1.51 36.26,0.29 67.89,2.09 80.51,6.53 53.06,18.72 62.42,42.75 78.24,84.04l5.8 14.72c9.1,22.83 17.69,44.07 27.74,64.44 20.22,40.44 34.94,69.87 48.15,93.58 9.84,17.32 20.11,34.31 32.77,53.58 1.25,-30.28 0.4,-64.95 -0.26,-89.62l-1.1 0.66c0.29,0.52 0.55,-26.02 0.55,-12.55 0.63,3.56 0.4,8.15 0.55,11.89l-1.1 0.66c-19.6,-33.21 -54.97,-93.32 -38.57,-169.21zm148.77 29.21c-11.63,-0.37 -25.03,-23.93 -26.09,-12.44l-1.21 8.26c-6.71,29.1 13.03,62.64 23.89,81.06 10.5,17.84 18.02,30.53 18.02,50.57l-0.04 6.75c1.58,58.46 4.48,164.48 -26.83,217.25 -7.26,12.66 -16.55,22.38 -26.9,29.5 -18.2,12.51 -37.51,16.47 -56.88,14.31 -14.68,-1.61 -28.33,-6.82 -40.74,-14.16 -22.93,-13.58 -43.56,-36.99 -54.57,-52.81 -24.77,-35.41 -42.02,-62.97 -58.42,-92.29 -17.36,-31.3 -31.52,-59.74 -51.01,-98.9 -12.04,-24.62 -21.54,-48.15 -31.67,-73.18 -2.17,-5.17 -4.59,-12.84 -6.9,-17.1 -2.79,-7.26 -2.49,-10.9 -3.45,-11.23 -1.21,-0.4 -16.37,0.4 -40.22,0.22 -34.64,-0.29 -77.4,0.26 -106.06,0.84l18.09 40.11c25.91,61.43 73.5,158.64 124.11,249.1 38.57,68.92 78.57,133.25 111.01,172.4l31.49 39.16c5.91,4.51 10.87,8.55 19.08,19.82l4.37 4.81c4.26,3.34 8.88,7.12 15.42,13.69 29.36,29.83 69.94,56.33 114.16,75.3 42.42,18.16 87.34,29.14 127.71,28.99l31.74 0.11c28.95,0.18 33.46,0.22 34.57,-19.16 1.69,-28.44 7.6,-62.13 18.79,-89.72 9.06,-21.65 21.5,-40.99 38.35,-54.75 23.56,-19.45 51.93,-27.38 85.25,-18.35 14.31,3.85 28.92,11.16 43.52,22.31 19.89,15.27 43.85,44.07 68.7,73.91 16.95,20.4 34.57,41.51 49.14,55.96l8.95 9.43c14.53,12.15 23.86,18.05 31.52,20.18 9.21,2.57 23.05,2.53 42.94,2.24l35.48 0.07c36.74,0.33 87.16,0.73 113.94,-2.24 -6.13,-10.46 -14.72,-22.35 -22.13,-32.59l-6.42 -9.1 -44.7 -54.75c-8.26,-9.18 -17.51,-18.09 -26.94,-27.08l-21.65 -21.32c-4.85,-4.99 -7.63,-8.59 -10.31,-12.04l-9.47 -9.61c-51.63,-50.24 -93.06,-90.98 -50.42,-179.12 14.24,-29.54 52.48,-82.38 77.76,-117.29l11.93 -16.29c13.58,-19.19 27.12,-38.49 40.62,-58.9 13.28,-20.11 26.2,-40.7 38.46,-62.2 5.36,-9.47 10.72,-19.34 15.74,-30.09l5.76 -13.1c-32.63,-0.11 -87.12,0.81 -124.04,1.4l-43.78 0.59c-18.9,0.11 -10.86,-14.42 -18.79,-7.15 -4.26,3.89 2.17,1.76 -1.36,11.34 -5.32,14.5 -12.36,33.47 -23.04,57.62 -18.31,40.84 -57.54,123.59 -98.17,186.68 -30.94,48.15 -65.83,87.96 -101.06,101.14 -59.56,22.28 -94.57,-5.65 -114.13,-57.8 -17.21,-45.95 -14.57,-118.39 -13.28,-152.81l2.06 -51.81c2.35,-44.29 5.65,-106.94 1.69,-117.47l-1.21 -0.37c-13.21,-3.96 -33.58,-6.06 -54.61,-7.01 -24.84,-1.1 -49.28,-0.81 -67.41,-0.55l-20.37 -0.33zm-761.98 -364.11l0 1354.2c0,31.48 10.53,65.94 27.6,97.25 17.72,32.48 42.17,60.88 68.92,78.71l18.79 11.93 18.86 10.28c10.83,5.5 26.75,11.3 44.48,15.7 13.72,3.38 28.18,5.69 40.88,5.69l1354.2 0c12.81,0 27.3,-2.31 41.07,-5.69 17.72,-4.37 33.65,-10.2 44.18,-15.49 26.49,-13.25 48.29,-28.41 66.38,-46.5 18.17,-18.42 33.36,-40.26 46.57,-66.72 5.51,-10.57 11.3,-26.5 15.71,-44.22 3.37,-13.76 5.69,-28.22 5.69,-40.95l0 -1354.2c0,-25.39 -5.43,-49.21 -14.68,-71.27 -11.12,-26.9 -27.78,-51.37 -47.3,-73.46l-6.2 -7.38 -3.56 -2.97c-5.5,-4.44 -8.18,-7.27 -10.83,-10.02l-0.48 -0.4c-17.1,-15.23 -40.66,-28.99 -65.91,-38.9 -24.08,-9.43 -49.03,-15.19 -70.64,-15.19l-1354.2 0c-12.66,0 -27.08,2.31 -40.88,5.73 -16.66,4.11 -31.78,9.5 -42.28,14.5l-39.85 23.41c-6.02,3.96 -12.04,8.62 -17.32,13.36 -5.87,5.21 -11.01,10.46 -14.97,15.19l-12.18 14.64c-13.21,15.42 -16.95,19.82 -30.83,47.56 -5.25,10.53 -11.08,26.49 -15.49,44.26 -3.41,14.02 -5.73,28.4 -5.73,40.95zm-124.26 1354.2l0 -1354.2c0,-22.79 3.85,-47.63 9.62,-70.79 6.57,-26.2 16.07,-51.52 25.17,-69.76 20.92,-41.84 26.79,-48.81 46.86,-72.3l11.92 -14.16c8.15,-9.58 17.76,-19.31 27.6,-28.08 10.35,-9.21 21.21,-17.65 31.19,-24.29 16.84,-9.8 33.87,-20.59 50.97,-29.72 18.24,-9.14 43.71,-18.68 69.98,-25.14 23.19,-5.76 47.89,-9.62 70.46,-9.62l1354.2 0c37.14,0 77.87,9.07 115.78,23.93 38.61,15.12 75.45,36.95 103.27,61.72 8.4,8.33 16,14.57 24.84,22.13l6.68 9.54c28.15,31.89 52.29,67.67 68.85,107.23 15.41,36.59 24.44,76.44 24.44,119.3l0 1354.2c0,22.6 -3.85,47.34 -9.58,70.53 -6.5,26.2 -16,51.59 -25.14,69.91 -19.23,38.94 -41.95,71.34 -69.65,99.05 -27.78,27.6 -60.22,50.24 -98.9,69.58 -18.24,9.14 -43.6,18.64 -69.94,25.17 -23.19,5.73 -47.96,9.58 -70.64,9.58l-1354.2 0c-22.57,0 -47.3,-3.85 -70.46,-9.58 -26.09,-6.46 -51.41,-15.92 -69.69,-25.03 -10.87,-5.28 -19.49,-9.98 -27.19,-14.53l-24.04 -15.38c-43.52,-28.88 -82.13,-73.14 -109.25,-122.82 -26.75,-48.95 -43.15,-104.26 -43.15,-156.48zm1924.4 -1604.88l0.37 0.15c0.29,0.33 -1.36,-0.95 -0.37,-0.15z"/>
 </g>
</svg>
