<?xml version="1.0" encoding="UTF-8"?>
<!DOCTYPE svg PUBLIC "-//W3C//DTD SVG 1.1//EN" "http://www.w3.org/Graphics/SVG/1.1/DTD/svg11.dtd">
<!-- Creator: CorelDRAW 2019 (64-Bit) -->
<svg xmlns="http://www.w3.org/2000/svg" xml:space="preserve" width="61.3009mm" height="61.3008mm" version="1.1" style="shape-rendering:geometricPrecision; text-rendering:geometricPrecision; image-rendering:optimizeQuality; fill-rule:evenodd; clip-rule:evenodd"
viewBox="0 0 2041.83 2041.83"
 xmlns:xlink="http://www.w3.org/1999/xlink">
 <defs>
  <style type="text/css">
   <![CDATA[
    .fil0 {fill:black;fill-rule:nonzero}
   ]]>
  </style>
 </defs>
 <g id="Слой_x0020_1">
  <metadata id="CorelCorpID_0Corel-Layer"/>
  <path class="fil0" d="M444.37 0l1153.14 0c122.09,0 233.1,50.02 313.61,130.46 80.74,80.48 130.72,191.67 130.72,313.91l0 1153.14c0,122.24 -49.98,233.39 -130.46,313.87 -80.73,80.4 -191.85,130.46 -313.87,130.46l-1153.14 0c-122.09,0 -233.14,-50.02 -313.65,-130.46 -80.7,-80.77 -130.72,-191.82 -130.72,-313.87l0 -1153.14c0,-122.24 50.02,-233.4 130.5,-313.87 80.73,-80.4 191.85,-130.5 313.87,-130.5zm1153.14 124.26l-1153.14 0c-88.15,0 -168.18,35.96 -226.02,93.83 -58.02,58.28 -94.09,138.35 -94.09,226.28l0 1153.14c0,88.03 36.04,168.11 93.94,226.13 58.02,57.91 138.09,93.94 226.17,93.94l1153.14 0c88.14,0 168.18,-35.93 226.02,-93.8 58.02,-58.28 94.05,-138.31 94.05,-226.27l0 -1153.14c0,-87.96 -36.04,-168.04 -94.05,-226.05 -57.91,-58.02 -137.95,-94.06 -226.02,-94.06z"/>
  <path class="fil0" d="M696.15 293.61l649.61 0c110.75,0 211.42,45.29 284.29,118.16 72.88,72.88 118.16,173.58 118.16,284.33l0 649.65c0,110.75 -45.28,211.42 -118.16,284.29 -72.88,72.88 -173.54,118.16 -284.29,118.16l-649.61 0c-110.75,0 -211.45,-45.28 -284.33,-118.16 -72.88,-73.21 -118.2,-173.8 -118.2,-284.29l0 -649.65c0,-110.75 45.29,-211.45 118.16,-284.33 73.18,-72.88 173.8,-118.16 284.37,-118.16zm649.61 124.26l-649.61 0c-76.55,0 -146.16,31.3 -196.62,81.65 -50.31,50.53 -81.65,120.15 -81.65,196.59l0 649.65c0,76.63 31.27,146.2 81.54,196.44 50.68,50.42 120.29,81.76 196.73,81.76l649.61 0c76.44,0 146.02,-31.34 196.44,-81.76 50.42,-50.42 81.76,-120 81.76,-196.44l0 -649.65c0,-76.44 -31.34,-146.05 -81.76,-196.48 -50.42,-50.42 -120,-81.76 -196.44,-81.76z"/>
  <path class="fil0" d="M981.69 717.06c97.43,0 185.91,39.63 250.05,103.71 64.33,64.41 103.96,152.92 103.96,250.31 0,97.72 -39.67,186.27 -103.71,250.31 -64.04,64.04 -152.59,103.67 -250.31,103.67 -97.73,0 -186.24,-39.63 -250.28,-103.67 -64.04,-64.04 -103.71,-152.59 -103.71,-250.31 0,-97.72 39.63,-186.27 103.67,-250.31 64.04,-64.04 152.59,-103.71 250.31,-103.71zm162.57 191.41c-41.51,-41.51 -98.94,-67.16 -162.57,-67.16 -63.42,0 -120.92,25.76 -162.46,67.3 -41.54,41.54 -67.27,99.05 -67.27,162.46 0,63.41 25.76,120.92 67.3,162.46 41.54,41.54 99.01,67.27 162.42,67.27 63.41,0 120.92,-25.72 162.46,-67.27 41.54,-41.54 67.3,-99.05 67.3,-162.46 0,-63.6 -25.65,-121.06 -67.19,-162.6z"/>
  <path class="fil0" d="M1352.44 501.87c42.57,0 81.14,17.39 109.14,45.32 28.26,28 45.58,66.71 45.58,109.43 0,42.72 -17.32,81.4 -45.32,109.39 -28,28 -66.68,45.32 -109.39,45.32 -42.64,0 -81.39,-17.32 -109.39,-45.32 -27.93,-28.26 -45.32,-66.82 -45.32,-109.39 0,-42.71 17.32,-81.43 45.32,-109.43 28.26,-27.97 66.86,-45.32 109.39,-45.32zm21.62 133.1c-5.4,-5.43 -13.14,-8.84 -21.62,-8.84 -8.51,0 -16.18,3.41 -21.65,8.81 -5.36,5.58 -8.81,13.28 -8.81,21.69 0,8.48 3.41,16.22 8.81,21.69 5.58,5.32 13.25,8.77 21.65,8.77 8.4,0 16.07,-3.45 21.54,-8.92 5.47,-5.47 8.92,-13.14 8.92,-21.54 0,-8.4 -3.45,-16.11 -8.84,-21.65z"/>
 </g>
</svg>
